<svg width="1200" height="438.261" viewBox="-49.043 -20.87 2122.435 799.304"
  xmlns="http://www.w3.org/2000/svg"
  xmlns:xlink="http://www.w3.org/1999/xlink" version="1.1">
  <path fill-rule="evenodd" clip-rule="evenodd" d="m489.475 440.4 -347.53 209.645c-3.183 2.504 -7.148 4.07 -11.52 4.07a18.626 18.626 0 0 1 -18.637 -18.626c0 -7.043 3.997 -13.106 9.757 -16.278l348.626 -211.93a32.348 32.348 0 0 0 5.41 -4.252 30.287 30.287 0 0 0 0 -42.835 31.304 31.304 0 0 0 -6.026 -4.638L89.896 124.79a36 36 0 0 0 -16.461 -4.033 36.183 36.183 0 0 0 -36.183 36.162v401.708a18.626 18.626 0 1 1 -37.252 0V156.125C0 116.014 32.504 83.478 72.637 83.478c13.169 0 25.45 3.579 36.104 9.699l380.577 229.565c19.456 12.386 32.41 34.09 32.41 58.868 0 24.71 -12.887 46.362 -32.254 58.79m-433.591 202.09a18.626 18.626 0 1 1 0 37.252 18.626 18.626 0 0 1 -18.631 -18.616 18.626 18.626 0 0 1 18.631 -18.637" fill="#0092ca"/>
  <path fill="#393e46" d="M626.087 0h15.652v761.739h-15.652z"/>
  <path fill="#393e46" d="m720.428,307.11154c0.308,18.141 0.308,172.21 0.308,184.821c0,4.612 0.616,5.53 5.228,5.53c10.456,0 10.456,0.313 20.911,0c2.155,0 5.843,0 7.69,-0.918c2.15,-0.923 0.918,-73.497 0.918,-77.499c0,-4.304 8.609,-3.381 11.071,-3.381c51.36,0 65.504,-36.903 65.504,-68.27c0,-28.294 -5.536,-80.572 -69.501,-80.572c-11.071,0 -22.45,0.313 -33.214,0.313c-2.457,0 -5.53,-0.313 -7.685,1.226c-2.463,1.847 -1.539,29.217 -1.231,38.75m35.363,63.35c0,-6.767 -0.308,-47.05 0,-59.353c0,-1.847 -0.308,-3.997 0,-6.151c0.923,-3.381 4.92,-3.381 7.998,-3.078c17.833,1.237 27.981,16.92 29.52,33.522c1.231,12 -0.308,29.833 -8.922,39.365c-6.146,6.459 -14.139,10.456 -24.595,10.456c-2.155,0 -4.31,-2.463 -4.31,-4.612c0,-3.386 0,-6.767 0.313,-10.148m199.268,35.979c0,13.837 -0.303,41.207 -0.61,41.207l0,41.823c0,1.847 -0.313,4.92 0.61,6.767c0.923,2.15 3.694,1.539 5.536,1.231c8.922,-0.923 17.838,0.308 26.755,0c9.84,-0.313 6.767,-15.376 6.459,-21.527c-1.231,-13.534 0.308,-116.557 0.308,-153.454c0,-16.607 -0.616,-50.744 -1.539,-52.278c-1.534,-2.765 -5.53,-3.386 -8.609,-3.694c-6.767,-1.226 -10.148,0.616 -20.296,0.616s-10.763,3.078 -10.763,13.842l0,9.224c-0.313,7.383 0.923,59.045 0.923,67.346c0,3.997 -0.313,4.304 -4.304,4.304c-10.153,-0.308 -24.297,0.923 -34.748,0c-15.073,-1.226 -11.687,0 -12.61,-13.837l0,-1.847c0,-19.68 2.457,-70.727 1.534,-73.805c-1.534,-4.612 -3.381,-5.53 -7.377,-5.228c-9.23,0.616 -18.762,-0.918 -27.986,-0.308c-3.078,0.313 -3.997,1.231 -4.92,4.31c-0.313,1.534 -0.616,3.073 -0.616,4.612c0,9.532 0.616,22.445 0.923,31.983l-0.923,182.358c0,7.993 7.075,7.075 22.758,7.075c14.452,0 18.141,3.381 18.141,-13.842c0,-13.837 -0.923,-31.367 -0.616,-45.203c0.313,-10.763 0,-21.219 0,-31.983c0.313,-3.997 1.231,-5.228 4.92,-5.228c13.534,-0.308 28.294,0 41.823,0c4.31,0 5.228,0.616 5.228,5.53m70.424,27.991l-0.308,0c0,7.685 -0.308,15.683 0,23.677c0.313,9.84 0.923,19.68 1.539,29.52c0,3.386 0.923,4.31 3.997,4.925c6.459,1.534 12.61,1.842 19.064,1.842c16.607,-0.616 33.214,0.616 49.821,0c6.767,-0.308 9.84,0.313 16.607,-0.923c6.151,-1.226 8.301,-4.612 8.301,-13.837c-0.616,-5.843 -0.308,-8.301 -0.308,-15.376c0,-10.148 -7.07,-13.534 -13.221,-13.226c-4.304,0.313 -24.908,-0.308 -33.214,-0.308c-13.837,0.313 -11.687,2.155 -11.687,-12.297c0,-11.687 0.313,-26.755 0.313,-38.75c0,-6.459 0.61,-8.609 6.762,-8.609l38.442,0c6.151,0.923 10.456,-3.386 10.456,-9.84s0.616,-6.767 0.616,-13.226l-0.928,-9.224c-0.616,-5.228 -2.463,-7.075 -7.69,-7.075c-3.381,0 -6.762,0.313 -10.148,0.616c-13.221,0.923 -19.372,-0.923 -32.29,0c-4.304,0 -4.92,-0.616 -5.228,-4.612c-1.226,-11.995 0,-25.216 1.231,-37.21c0.308,-4.92 1.539,-5.843 6.151,-6.151l43.357,-0.308c5.843,-0.616 7.69,-0.308 7.383,-6.146c-0.616,-8.922 0.313,-18.146 -0.616,-27.063c-0.61,-4.92 -2.15,-5.843 -7.685,-5.843c-9.224,0.308 -11.379,0.308 -20.609,0.923c-9.219,0.308 -46.122,0.308 -55.043,0.308c-12.913,0 -13.837,-0.923 -14.144,14.76c-0.616,12.297 -0.308,24.908 -0.308,37.513c0,21.532 -1.231,98.713 -0.616,115.941m142.383,-167.911c-0.308,0 -2.765,-0.303 -5.228,-0.303c-4.304,0 -6.459,1.534 -7.075,5.53c-0.308,2.155 -0.308,4.617 0.313,6.459c2.452,9.532 50.123,206.656 52.581,215.27c0.923,3.689 1.231,3.689 4.92,3.689l26.755,0c4.002,0 4.31,-5.536 5.228,-10.763c6.157,-31.675 13.842,-63.042 21.219,-93.49a26.087,26.087 0 0 1 1.539,-5.228c0.308,-0.61 0.923,-0.918 1.231,-0.918c0.616,0 1.231,0.308 1.534,0.918c1.539,3.694 19.993,91.028 23.682,106.096c0.616,1.847 1.539,3.386 3.997,3.386l24.605,0c4.612,0 7.685,-2.463 8.609,-7.075c3.997,-20.296 9.224,-43.054 14.144,-63.042c6.157,-24.6 12.61,-48.897 19.07,-73.497c4.92,-19.68 10.148,-41.207 16.299,-60.584c2.15,-6.454 10.148,-25.826 -3.386,-25.826c-6.767,0 -12.605,-0.621 -19.372,-0.313c-2.155,0 -4.304,0 -6.459,0.313c-3.381,0 -5.843,1.842 -7.075,4.915c-0.918,3.078 -2.457,6.459 -3.381,9.537c-4.612,19.68 -8.922,42.13 -14.452,61.503c-3.997,14.452 -8.306,28.597 -11.687,43.054c0,0.308 -1.231,4.92 -2.463,4.92c-2.15,0 -2.765,-3.386 -3.381,-6.459c-0.308,-1.231 -15.683,-89.489 -17.833,-106.711c-0.616,-6.762 -2.77,-10.763 -9.845,-11.071l-3.689,0c-7.993,0.616 -12.303,-0.308 -20.296,0.313c-6.459,0.303 -7.383,0.918 -8.922,6.762c-0.303,1.231 -0.303,2.765 -0.61,4.304c-2.463,13.534 -18.454,100.868 -20.609,111.323c0,0.616 -0.303,1.847 -1.226,1.847c-1.231,0 -1.539,-1.539 -1.847,-2.155c-0.308,-1.231 -27.063,-114.089 -27.981,-116.859c-1.231,-3.689 -4.002,-5.843 -8.306,-5.843c-6.767,0.313 -11.995,0 -20.603,0m325.67,23.99c0,14.765 -0.621,173.442 0,187.586c0.303,3.386 0.303,6.767 0.303,10.148c0,2.463 1.539,4.002 3.689,4.92c1.847,0.616 4.31,1.231 6.157,1.231c8.917,-0.923 18.449,0 27.673,-0.308c15.991,1.231 30.443,-2.457 44.285,-9.84c12.913,-7.377 19.983,-20.603 24.908,-34.44c3.997,-11.687 3.381,-25.529 1.231,-37.518c-1.847,-10.763 -6.767,-21.219 -13.226,-29.833c-0.923,-1.226 -14.144,-9.532 -13.529,-10.148c7.993,-11.374 19.372,-20.911 20.911,-35.056c1.231,-12.303 -1.539,-24.908 -5.843,-36.287c-2.765,-7.383 -6.459,-14.452 -12.303,-19.988c-9.84,-9.23 -24.6,-13.226 -37.513,-14.452c-13.226,-1.231 -25.529,-0.313 -38.75,-0.923c-4.612,0 -6.767,1.842 -6.767,6.762c0,6.459 -1.231,11.687 -1.231,18.146m37.826,55.967c-0.308,-3.381 0,-30.443 -0.616,-40.591c-0.308,-3.689 1.847,-5.536 5.843,-4.612c3.078,0.616 5.536,0.923 7.998,2.765c7.685,5.843 13.529,12.918 13.837,22.758c0,4.92 0,9.84 -1.847,14.452c-2.15,5.536 -5.228,9.84 -10.763,12.61c-3.689,1.847 -7.07,3.997 -10.763,5.53c-1.842,0.621 -3.689,-0.303 -3.997,-2.15c0,-3.689 0.308,-10.763 0.308,-10.763m30.751,81.496c0,1.539 -0.308,4.304 -0.308,7.07c-0.308,9.23 -12.297,20.911 -26.139,21.219c-0.923,0 -2.457,-0.918 -2.765,-1.842c-0.616,-1.847 -1.231,-3.997 -1.231,-6.157c-0.308,-9.527 0,-18.751 0,-28.904c0.923,-6.454 0.308,-13.221 0.308,-19.983c0.308,-5.233 1.539,-6.157 6.459,-7.075c7.377,-0.923 14.144,2.15 17.53,7.993c3.997,7.075 5.53,14.765 6.146,22.758l0,4.921zm72.266,-131.009c-0.303,19.07 1.539,158.379 1.231,168.522c0,9.537 0,19.07 0.313,28.602c0,1.539 0.918,3.078 2.452,3.078c21.532,0.918 42.751,-0.923 64.278,-0.616c7.07,0.308 14.139,0 20.911,0c6.762,-0.313 7.377,-3.078 7.07,-8.609c-0.308,-8.614 -0.308,-16.299 -0.308,-24.605c-0.308,-4.304 -2.765,-5.843 -6.459,-5.843c-12.605,0.313 -25.216,-0.308 -37.826,0.313c-2.15,0.303 -4.304,0.303 -6.454,0.303c-3.689,-0.308 -4.612,-1.231 -4.92,-5.228l0,-4.612c-0.923,-25.523 0.923,-51.97 0.923,-77.494c-0.313,-21.527 0,-40.904 -0.313,-59.969c0,-8.301 0,-16.607 -0.303,-24.6c-0.313,-4.92 0,-10.148 -1.231,-15.068c-0.616,-1.847 -1.539,-4.31 -3.689,-4.31l-28.904,0c-4.925,0 -6.464,3.386 -6.772,8.306l0.001,21.83zm127.007,20.296c0,31.064 0.313,62.431 0.923,93.183c0.313,18.762 0,39.981 8.922,57.198c11.374,22.143 36.595,31.983 60.887,30.443c16.607,-1.226 31.983,-5.53 43.977,-17.833c20.296,-21.835 16.294,-55.972 16.602,-83.953c0.616,-40.289 1.539,-77.802 1.539,-118.398c0,-6.762 -2.15,-10.456 -8.922,-10.763c-8.296,-0.308 -16.602,0 -24.903,0.616c-3.386,0 -6.157,3.078 -6.157,6.767c0.313,29.52 0.929,59.353 0.621,89.181c-0.313,25.523 3.073,53.817 -6.459,78.11c-3.689,8.922 -11.995,15.683 -21.835,15.683c-24.6,-0.616 -23.682,-29.828 -24.6,-47.05c-1.847,-37.513 0.918,-75.955 1.842,-113.478c0,-7.07 0,-14.139 0.313,-21.214c0.303,-3.694 0.918,-8.306 -4.002,-8.609l-5.536,0c-7.69,0.61 -15.376,-0.313 -23.061,0c-7.383,0.61 -9.845,2.765 -9.845,10.143c0,13.226 -0.308,26.755 -0.308,39.981m163.91,117.167l-0.308,0c0,7.685 -0.308,15.683 0,23.677c0.313,9.84 0.923,19.68 1.539,29.52c0,3.386 0.923,4.31 3.997,4.925c6.459,1.534 12.61,1.842 19.07,1.842c16.602,-0.616 33.209,0.616 49.816,0c6.767,-0.308 9.84,0.313 16.607,-0.923c6.151,-1.226 8.301,-4.612 8.301,-13.837c-0.61,-5.843 -0.308,-8.301 -0.308,-15.376c0,-10.148 -7.07,-13.534 -13.221,-13.226c-4.304,0.313 -24.908,-0.308 -33.214,-0.308c-13.837,0.313 -11.687,2.155 -11.687,-12.297c0,-11.687 0.313,-26.755 0.313,-38.75c0,-6.459 0.61,-8.609 6.762,-8.609l38.442,0c6.151,0.923 10.456,-3.386 10.456,-9.84s0.616,-6.767 0.616,-13.226l-0.923,-9.224c-0.616,-5.228 -2.463,-7.075 -7.69,-7.075c-3.381,0 -6.762,0.313 -10.148,0.616c-13.221,0.923 -19.372,-0.923 -32.29,0c-4.304,0 -4.92,-0.616 -5.228,-4.612c-1.226,-11.995 0,-25.216 1.231,-37.21c0.313,-4.92 1.539,-5.843 6.151,-6.151l43.357,-0.308c5.843,-0.616 7.69,-0.308 7.383,-6.146c-0.61,-8.922 0.313,-18.146 -0.61,-27.063c-0.616,-4.92 -2.155,-5.843 -7.69,-5.843c-9.224,0.308 -11.374,0.308 -20.609,0.923c-9.219,0.308 -46.122,0.308 -55.043,0.308c-12.913,0 -13.837,-0.923 -14.144,14.76c-0.616,12.297 -0.308,24.908 -0.308,37.513c0,21.532 -1.231,98.713 -0.616,115.941"/>
</svg>